<?xml version="1.0" encoding="UTF-8"?>
<svg width="3300" height="2550" viewBox="0 0 3300 2550" xmlns="http://www.w3.org/2000/svg">
  <defs>
    <style>
      .cut { fill: none; stroke: #ff3b3b; stroke-width: 3; opacity: .75; }
      .trim { fill: none; stroke: #00ffe1; stroke-width: 2; opacity: .4; stroke-dasharray: 10 8; }
      .cal { fill:none; stroke:#ffffff; stroke-width:3; opacity:.8; }
    </style>
  </defs>
  <rect x="30" y="2220" width="300" height="300" class="cal"/>
  <g transform="translate(150,225)">
    <g>
      <rect x="0" y="0" width="750" height="1050" rx="12" ry="12" class="cut"/>
      <rect x="-6" y="-6" width="762" height="1062" rx="14" ry="14" class="trim"/>
      <rect x="750" y="0" width="750" height="1050" rx="12" ry="12" class="cut"/>
      <rect x="744" y="-6" width="762" height="1062" rx="14" ry="14" class="trim"/>
      <rect x="1500" y="0" width="750" height="1050" rx="12" ry="12" class="cut"/>
      <rect x="1494" y="-6" width="762" height="1062" rx="14" ry="14" class="trim"/>
      <rect x="2250" y="0" width="750" height="1050" rx="12" ry="12" class="cut"/>
      <rect x="2244" y="-6" width="762" height="1062" rx="14" ry="14" class="trim"/>
    </g>
    <g transform="translate(0,1050)">
      <rect x="0" y="0" width="750" height="1050" rx="12" ry="12" class="cut"/>
      <rect x="-6" y="-6" width="762" height="1062" rx="14" ry="14" class="trim"/>
      <rect x="750" y="0" width="750" height="1050" rx="12" ry="12" class="cut"/>
      <rect x="744" y="-6" width="762" height="1062" rx="14" ry="14" class="trim"/>
      <rect x="1500" y="0" width="750" height="1050" rx="12" ry="12" class="cut"/>
      <rect x="1494" y="-6" width="762" height="1062" rx="14" ry="14" class="trim"/>
      <rect x="2250" y="0" width="750" height="1050" rx="12" ry="12" class="cut"/>
      <rect x="2244" y="-6" width="762" height="1062" rx="14" ry="14" class="trim"/>
    </g>
  </g>
</svg>
